<mxfile host="Electron" modified="2024-06-04T01:03:48.886Z" agent="Mozilla/5.0 (Windows NT 10.0; Win64; x64) AppleWebKit/537.36 (KHTML, like Gecko) draw.io/24.4.13 Chrome/124.0.6367.207 Electron/30.0.6 Safari/537.36" etag="IOa1eVhdDnmPpGDTykE8" version="24.4.13" type="device">
  <diagram name="Страница — 1" id="erHj2NbhqmfqZrWNmItK">
    <mxGraphModel dx="746" dy="537" grid="1" gridSize="10" guides="1" tooltips="1" connect="1" arrows="1" fold="1" page="1" pageScale="1" pageWidth="827" pageHeight="1169" math="0" shadow="0">
      <root>
        <mxCell id="0" />
        <mxCell id="1" parent="0" />
        <mxCell id="lIEtFDDg81CWa47G5Wzw-1" value="Начало" style="rounded=1;whiteSpace=wrap;html=1;arcSize=50;" vertex="1" parent="1">
          <mxGeometry x="354" y="30" width="120" height="20" as="geometry" />
        </mxCell>
        <mxCell id="lIEtFDDg81CWa47G5Wzw-2" value="" style="endArrow=none;dashed=1;html=1;rounded=0;exitX=0;exitY=0.5;exitDx=0;exitDy=0;entryX=1;entryY=0.5;entryDx=0;entryDy=0;exitPerimeter=0;" edge="1" source="lIEtFDDg81CWa47G5Wzw-3" target="lIEtFDDg81CWa47G5Wzw-1" parent="1">
          <mxGeometry width="50" height="50" relative="1" as="geometry">
            <mxPoint x="570" y="35" as="sourcePoint" />
            <mxPoint x="550" y="35" as="targetPoint" />
          </mxGeometry>
        </mxCell>
        <mxCell id="lIEtFDDg81CWa47G5Wzw-3" value="    Входные данные:&#xa;     int arr_size, int[,] main, int compare&#xa;    Выходные данные:&#xa;     int[] returns" style="strokeWidth=2;shape=mxgraph.flowchart.annotation_1;align=left;pointerEvents=1;recursiveResize=1;autosize=0;verticalAlign=middle;horizontal=1;" vertex="1" parent="1">
          <mxGeometry x="490" y="5" width="50" height="70" as="geometry" />
        </mxCell>
        <mxCell id="lIEtFDDg81CWa47G5Wzw-5" value="" style="endArrow=none;html=1;rounded=0;entryX=0.5;entryY=0;entryDx=0;entryDy=0;exitX=0.5;exitY=1;exitDx=0;exitDy=0;" edge="1" target="lIEtFDDg81CWa47G5Wzw-6" parent="1" source="lIEtFDDg81CWa47G5Wzw-1">
          <mxGeometry width="50" height="50" relative="1" as="geometry">
            <mxPoint x="419.9999999999999" y="180" as="sourcePoint" />
            <mxPoint x="335.9999999999999" y="180" as="targetPoint" />
          </mxGeometry>
        </mxCell>
        <mxCell id="lIEtFDDg81CWa47G5Wzw-6" value="returns = new int[arr_size]" style="rounded=0;whiteSpace=wrap;html=1;" vertex="1" parent="1">
          <mxGeometry x="341" y="60" width="146" height="20" as="geometry" />
        </mxCell>
        <mxCell id="lIEtFDDg81CWa47G5Wzw-7" value="" style="endArrow=none;html=1;rounded=0;entryX=0.5;entryY=1;entryDx=0;entryDy=0;exitX=0.5;exitY=0;exitDx=0;exitDy=0;" edge="1" target="lIEtFDDg81CWa47G5Wzw-6" parent="1" source="lIEtFDDg81CWa47G5Wzw-8">
          <mxGeometry width="50" height="50" relative="1" as="geometry">
            <mxPoint x="419.9999999999999" y="260" as="sourcePoint" />
            <mxPoint x="415.9999999999999" y="250" as="targetPoint" />
          </mxGeometry>
        </mxCell>
        <mxCell id="lIEtFDDg81CWa47G5Wzw-8" value="lenght = Get_Length(main)" style="rounded=0;whiteSpace=wrap;html=1;" vertex="1" parent="1">
          <mxGeometry x="339" y="90" width="150" height="20" as="geometry" />
        </mxCell>
        <mxCell id="lIEtFDDg81CWa47G5Wzw-9" value="" style="endArrow=none;html=1;rounded=0;entryX=0.5;entryY=0;entryDx=0;entryDy=0;exitX=0.5;exitY=1;exitDx=0;exitDy=0;" edge="1" target="lIEtFDDg81CWa47G5Wzw-10" parent="1" source="lIEtFDDg81CWa47G5Wzw-8">
          <mxGeometry width="50" height="50" relative="1" as="geometry">
            <mxPoint x="419.9999999999999" y="140" as="sourcePoint" />
            <mxPoint x="335.9999999999999" y="140" as="targetPoint" />
          </mxGeometry>
        </mxCell>
        <mxCell id="lIEtFDDg81CWa47G5Wzw-10" value="k = 0" style="rounded=0;whiteSpace=wrap;html=1;" vertex="1" parent="1">
          <mxGeometry x="396" y="120" width="36" height="20" as="geometry" />
        </mxCell>
        <mxCell id="lIEtFDDg81CWa47G5Wzw-12" value="" style="endArrow=none;html=1;rounded=0;exitX=0.5;exitY=0;exitDx=0;exitDy=0;exitPerimeter=0;entryX=0.5;entryY=1;entryDx=0;entryDy=0;" edge="1" source="lIEtFDDg81CWa47G5Wzw-13" parent="1" target="lIEtFDDg81CWa47G5Wzw-10">
          <mxGeometry width="50" height="50" relative="1" as="geometry">
            <mxPoint x="469" y="430" as="sourcePoint" />
            <mxPoint x="463" y="290" as="targetPoint" />
          </mxGeometry>
        </mxCell>
        <mxCell id="lIEtFDDg81CWa47G5Wzw-13" value="i = 0; length" style="strokeWidth=2;html=1;shape=mxgraph.flowchart.loop_limit;whiteSpace=wrap;" vertex="1" parent="1">
          <mxGeometry x="364" y="150" width="100" height="30" as="geometry" />
        </mxCell>
        <mxCell id="lIEtFDDg81CWa47G5Wzw-14" value="i++" style="strokeWidth=2;html=1;shape=mxgraph.flowchart.loop_limit;whiteSpace=wrap;direction=west;" vertex="1" parent="1">
          <mxGeometry x="365" y="330" width="100" height="20" as="geometry" />
        </mxCell>
        <mxCell id="lIEtFDDg81CWa47G5Wzw-15" value="" style="endArrow=none;html=1;rounded=0;entryX=0.5;entryY=1;entryDx=0;entryDy=0;entryPerimeter=0;exitX=0.5;exitY=0;exitDx=0;exitDy=0;exitPerimeter=0;" edge="1" source="lIEtFDDg81CWa47G5Wzw-18" target="lIEtFDDg81CWa47G5Wzw-13" parent="1">
          <mxGeometry width="50" height="50" relative="1" as="geometry">
            <mxPoint x="414" y="190" as="sourcePoint" />
            <mxPoint x="490" y="360" as="targetPoint" />
          </mxGeometry>
        </mxCell>
        <mxCell id="lIEtFDDg81CWa47G5Wzw-16" value="" style="endArrow=none;html=1;rounded=0;exitX=0.5;exitY=1;exitDx=0;exitDy=0;exitPerimeter=0;entryX=0.5;entryY=0;entryDx=0;entryDy=0;entryPerimeter=0;" edge="1" source="lIEtFDDg81CWa47G5Wzw-14" target="lIEtFDDg81CWa47G5Wzw-19" parent="1">
          <mxGeometry width="50" height="50" relative="1" as="geometry">
            <mxPoint x="253" y="620" as="sourcePoint" />
            <mxPoint x="227" y="420" as="targetPoint" />
          </mxGeometry>
        </mxCell>
        <mxCell id="lIEtFDDg81CWa47G5Wzw-17" value="" style="endArrow=none;html=1;rounded=0;entryX=0.5;entryY=0;entryDx=0;entryDy=0;entryPerimeter=0;exitX=0.5;exitY=0;exitDx=0;exitDy=0;" edge="1" target="lIEtFDDg81CWa47G5Wzw-14" parent="1" source="lIEtFDDg81CWa47G5Wzw-39">
          <mxGeometry width="50" height="50" relative="1" as="geometry">
            <mxPoint x="420" y="360" as="sourcePoint" />
            <mxPoint x="254" y="460" as="targetPoint" />
          </mxGeometry>
        </mxCell>
        <mxCell id="lIEtFDDg81CWa47G5Wzw-18" value="j = 0; length" style="strokeWidth=2;html=1;shape=mxgraph.flowchart.loop_limit;whiteSpace=wrap;" vertex="1" parent="1">
          <mxGeometry x="364" y="190" width="100" height="30" as="geometry" />
        </mxCell>
        <mxCell id="lIEtFDDg81CWa47G5Wzw-19" value="j++" style="strokeWidth=2;html=1;shape=mxgraph.flowchart.loop_limit;whiteSpace=wrap;direction=west;" vertex="1" parent="1">
          <mxGeometry x="365" y="299" width="100" height="20" as="geometry" />
        </mxCell>
        <mxCell id="lIEtFDDg81CWa47G5Wzw-21" value="" style="endArrow=none;html=1;rounded=0;entryX=0.5;entryY=1;entryDx=0;entryDy=0;entryPerimeter=0;exitX=0.5;exitY=0;exitDx=0;exitDy=0;" edge="1" source="lIEtFDDg81CWa47G5Wzw-23" target="lIEtFDDg81CWa47G5Wzw-18" parent="1">
          <mxGeometry width="50" height="50" relative="1" as="geometry">
            <mxPoint x="414" y="230" as="sourcePoint" />
            <mxPoint x="490" y="400" as="targetPoint" />
          </mxGeometry>
        </mxCell>
        <mxCell id="lIEtFDDg81CWa47G5Wzw-23" value="if (main[i, j] &amp;gt; compare)" style="rhombus;whiteSpace=wrap;html=1;" vertex="1" parent="1">
          <mxGeometry x="296" y="230" width="236" height="40" as="geometry" />
        </mxCell>
        <mxCell id="lIEtFDDg81CWa47G5Wzw-24" value="" style="endArrow=none;html=1;rounded=0;entryX=1;entryY=0.5;entryDx=0;entryDy=0;" edge="1" parent="1" target="lIEtFDDg81CWa47G5Wzw-23">
          <mxGeometry width="50" height="50" relative="1" as="geometry">
            <mxPoint x="560" y="250" as="sourcePoint" />
            <mxPoint x="442" y="340" as="targetPoint" />
          </mxGeometry>
        </mxCell>
        <mxCell id="lIEtFDDg81CWa47G5Wzw-25" value="" style="endArrow=none;html=1;rounded=0;exitX=0.5;exitY=0;exitDx=0;exitDy=0;" edge="1" parent="1" source="lIEtFDDg81CWa47G5Wzw-34">
          <mxGeometry width="50" height="50" relative="1" as="geometry">
            <mxPoint x="560" y="280" as="sourcePoint" />
            <mxPoint x="560" y="250" as="targetPoint" />
          </mxGeometry>
        </mxCell>
        <mxCell id="lIEtFDDg81CWa47G5Wzw-26" value="" style="endArrow=none;html=1;rounded=0;exitX=0;exitY=0.5;exitDx=0;exitDy=0;" edge="1" parent="1" source="lIEtFDDg81CWa47G5Wzw-23">
          <mxGeometry width="50" height="50" relative="1" as="geometry">
            <mxPoint x="262" y="280" as="sourcePoint" />
            <mxPoint x="280" y="250" as="targetPoint" />
          </mxGeometry>
        </mxCell>
        <mxCell id="lIEtFDDg81CWa47G5Wzw-27" value="" style="endArrow=none;html=1;rounded=0;" edge="1" parent="1">
          <mxGeometry width="50" height="50" relative="1" as="geometry">
            <mxPoint x="280" y="250" as="sourcePoint" />
            <mxPoint x="280" y="290" as="targetPoint" />
          </mxGeometry>
        </mxCell>
        <mxCell id="lIEtFDDg81CWa47G5Wzw-29" value="Да" style="text;html=1;align=center;verticalAlign=middle;whiteSpace=wrap;rounded=0;" vertex="1" parent="1">
          <mxGeometry x="500" y="220" width="60" height="30" as="geometry" />
        </mxCell>
        <mxCell id="lIEtFDDg81CWa47G5Wzw-30" value="Нет" style="text;html=1;align=center;verticalAlign=middle;whiteSpace=wrap;rounded=0;" vertex="1" parent="1">
          <mxGeometry x="270" y="220" width="60" height="30" as="geometry" />
        </mxCell>
        <mxCell id="lIEtFDDg81CWa47G5Wzw-34" value="returns[k++] = main[i, j]" style="rounded=0;whiteSpace=wrap;html=1;" vertex="1" parent="1">
          <mxGeometry x="495" y="260" width="130" height="20" as="geometry" />
        </mxCell>
        <mxCell id="lIEtFDDg81CWa47G5Wzw-35" value="" style="endArrow=none;html=1;rounded=0;entryX=0.5;entryY=1;entryDx=0;entryDy=0;" edge="1" parent="1" target="lIEtFDDg81CWa47G5Wzw-34">
          <mxGeometry width="50" height="50" relative="1" as="geometry">
            <mxPoint x="560" y="290" as="sourcePoint" />
            <mxPoint x="470" y="280" as="targetPoint" />
          </mxGeometry>
        </mxCell>
        <mxCell id="lIEtFDDg81CWa47G5Wzw-36" value="" style="endArrow=none;html=1;rounded=0;" edge="1" parent="1">
          <mxGeometry width="50" height="50" relative="1" as="geometry">
            <mxPoint x="410" y="290" as="sourcePoint" />
            <mxPoint x="560" y="290" as="targetPoint" />
          </mxGeometry>
        </mxCell>
        <mxCell id="lIEtFDDg81CWa47G5Wzw-37" value="" style="endArrow=none;html=1;rounded=0;" edge="1" parent="1">
          <mxGeometry width="50" height="50" relative="1" as="geometry">
            <mxPoint x="280" y="290" as="sourcePoint" />
            <mxPoint x="410" y="290" as="targetPoint" />
          </mxGeometry>
        </mxCell>
        <mxCell id="lIEtFDDg81CWa47G5Wzw-38" value="" style="endArrow=none;html=1;rounded=0;exitX=0.5;exitY=1;exitDx=0;exitDy=0;exitPerimeter=0;" edge="1" parent="1" source="lIEtFDDg81CWa47G5Wzw-19">
          <mxGeometry width="50" height="50" relative="1" as="geometry">
            <mxPoint x="429" y="350" as="sourcePoint" />
            <mxPoint x="415" y="290" as="targetPoint" />
          </mxGeometry>
        </mxCell>
        <mxCell id="lIEtFDDg81CWa47G5Wzw-39" value="return returns" style="rounded=0;whiteSpace=wrap;html=1;" vertex="1" parent="1">
          <mxGeometry x="355" y="360" width="120" height="20" as="geometry" />
        </mxCell>
        <mxCell id="lIEtFDDg81CWa47G5Wzw-41" value="Конец" style="rounded=1;whiteSpace=wrap;html=1;arcSize=50;" vertex="1" parent="1">
          <mxGeometry x="355" y="390" width="120" height="20" as="geometry" />
        </mxCell>
        <mxCell id="lIEtFDDg81CWa47G5Wzw-42" value="" style="endArrow=none;html=1;rounded=0;entryX=0.5;entryY=0;entryDx=0;entryDy=0;exitX=0.5;exitY=1;exitDx=0;exitDy=0;" edge="1" target="lIEtFDDg81CWa47G5Wzw-41" parent="1" source="lIEtFDDg81CWa47G5Wzw-39">
          <mxGeometry width="50" height="50" relative="1" as="geometry">
            <mxPoint x="470" y="400" as="sourcePoint" />
            <mxPoint x="500" y="440" as="targetPoint" />
          </mxGeometry>
        </mxCell>
      </root>
    </mxGraphModel>
  </diagram>
</mxfile>
